<svg width="71" height="61" viewBox="0 0 71 61" fill="none" xmlns="http://www.w3.org/2000/svg">
<path d="M64.1957 39.5334L64.8006 40.0231C64.9389 39.8519 64.9984 39.6301 64.9641 39.4128L64.1957 39.5334C64.9641 39.4123 64.9644 39.4123 64.9643 39.4118L64.9637 39.4106C64.9635 39.4095 64.9631 39.4081 64.9628 39.4063C64.9622 39.4028 64.9617 39.3979 64.9607 39.3916C64.9586 39.3791 64.9558 39.3609 64.9519 39.3377C64.9439 39.2909 64.9314 39.2228 64.9152 39.1348C64.8829 38.9587 64.834 38.7019 64.7648 38.3756C64.6263 37.7233 64.4081 36.7902 64.088 35.6567C63.4483 33.3908 62.3985 30.3141 60.7559 27.0761C57.4762 20.6112 51.7823 13.4059 42.1908 10.8359C32.5993 8.26589 24.0656 11.6588 17.9929 15.6178C14.9513 17.6006 12.5038 19.7403 10.8168 21.3827C9.97291 22.2043 9.31733 22.9033 8.87127 23.399C8.64816 23.647 8.47743 23.8448 8.36141 23.9812C8.30349 24.0493 8.25849 24.1021 8.22824 24.1386C8.21323 24.1568 8.2017 24.1711 8.19365 24.1809C8.18967 24.1858 8.1867 24.1899 8.18445 24.1926C8.18335 24.194 8.18223 24.1951 8.18156 24.1959L8.18036 24.1966L8.78518 24.6862L8.01658 24.8078C7.9823 24.5905 8.04177 24.3686 8.18011 24.1975L8.78518 24.6862M64.1957 39.5334C64.8006 40.0225 64.8006 40.0236 64.8003 40.024L64.7991 40.0247C64.7984 40.0255 64.7973 40.0266 64.7962 40.028C64.794 40.0307 64.791 40.0348 64.787 40.0396C64.7789 40.0495 64.7675 40.0638 64.7524 40.0819C64.7221 40.1185 64.6773 40.1712 64.6193 40.2394C64.5032 40.3757 64.3325 40.5736 64.1094 40.8216C63.6633 41.3173 63.0077 42.0163 62.1638 42.8379C60.4768 44.4803 58.0294 46.6199 54.9878 48.6028C48.9151 52.5617 40.3816 55.9538 30.7901 53.3838C21.1987 50.8137 15.5044 43.6094 12.2248 37.1445C10.5822 33.9065 9.53242 30.8298 8.89264 28.5639C8.57259 27.4304 8.35432 26.4973 8.21588 25.845C8.14664 25.5187 8.09772 25.2619 8.06544 25.0858C8.0493 24.9978 8.03677 24.9297 8.02882 24.8829C8.02486 24.8596 8.02207 24.8415 8.02001 24.829C8.01899 24.8227 8.01846 24.8178 8.01789 24.8143C8.0176 24.8125 8.01718 24.8111 8.01701 24.81L8.01632 24.8088C8.01625 24.8083 8.01684 24.8074 8.78518 24.6862" fill="#B3B3B3" stroke="#B3B3B3" stroke-width="1.55568" stroke-linejoin="round"/>
<path d="M61.7895 35.3694L62.3943 35.859C62.5327 35.6879 62.5921 35.4661 62.5578 35.2487L61.7895 35.3694C62.5578 35.2482 62.5582 35.2482 62.5581 35.2477L62.5574 35.2465C62.5572 35.2455 62.5568 35.244 62.5565 35.2423C62.556 35.2387 62.5554 35.2338 62.5544 35.2275C62.5524 35.215 62.5496 35.1969 62.5456 35.1736C62.5376 35.1269 62.5251 35.0587 62.509 34.9707C62.4767 34.7946 62.4278 34.5379 62.3585 34.2116C62.2201 33.5592 62.0018 32.6261 61.6818 31.4926C61.042 29.2267 59.9923 26.15 58.3496 22.912C55.07 16.4472 49.3761 9.24184 39.7845 6.67181C30.193 4.10183 21.6593 7.49478 15.5866 11.4537C12.5451 13.4366 10.0976 15.5762 8.4106 17.2186C7.56666 18.0403 6.91108 18.7392 6.46502 19.2349C6.24191 19.4829 6.07118 19.6808 5.95516 19.8172C5.89724 19.8852 5.85224 19.9381 5.82199 19.9746C5.80698 19.9927 5.79545 20.007 5.7874 20.0169C5.78342 20.0217 5.78045 20.0258 5.7782 20.0286C5.7771 20.0299 5.77598 20.031 5.77531 20.0318L5.77411 20.0325L6.37893 20.5222L5.61033 20.6438C5.57605 20.4264 5.63552 20.2046 5.77386 20.0335L6.37893 20.5222M61.7895 35.3694C62.3943 35.8585 62.3944 35.8596 62.3941 35.8599L62.3929 35.8606C62.3922 35.8615 62.3911 35.8626 62.39 35.8639C62.3877 35.8667 62.3848 35.8707 62.3808 35.8756C62.3727 35.8855 62.3613 35.8997 62.3462 35.9179C62.3159 35.9544 62.271 36.0071 62.213 36.0753C62.097 36.2117 61.9263 36.4096 61.7032 36.6575C61.2571 37.1533 60.6015 37.8522 59.7576 38.6738C58.0706 40.3163 55.6231 42.4559 52.5815 44.4388C46.5088 48.3976 37.9753 51.7897 28.3839 49.2197C18.7924 46.6496 13.0982 39.4453 9.81856 32.9805C8.17591 29.7424 7.12617 26.6657 6.48639 24.3999C6.16634 23.2663 5.94807 22.3333 5.80963 21.6809C5.74039 21.3546 5.69147 21.0979 5.65919 20.9217C5.64305 20.8338 5.63052 20.7656 5.62257 20.7188C5.61861 20.6956 5.61582 20.6775 5.61376 20.6649C5.61274 20.6587 5.61221 20.6537 5.61164 20.6502C5.61135 20.6484 5.61093 20.647 5.61076 20.6459L5.61007 20.6447C5.61 20.6443 5.61059 20.6433 6.37893 20.5222" fill="#44E2F8" stroke="black" stroke-width="1.55568" stroke-linejoin="round"/>
<path d="M37.0353 13.515C44.2039 15.1164 48.4819 22.7354 46.7665 30.4143C45.0511 38.0932 37.9374 43.1672 30.7687 41.5657C23.6002 39.9641 19.322 32.3452 21.0375 24.6664C22.753 16.9877 29.8667 11.9137 37.0353 13.515Z" fill="white" stroke="black" stroke-width="1.55568" stroke-linecap="round" stroke-linejoin="round"/>
<path d="M35.8464 18.4382C40.4205 19.4602 43.2399 24.0915 42.2003 28.7453C41.1605 33.399 36.6384 36.3893 32.0644 35.3676C27.4902 34.3458 24.6698 29.7151 25.7093 25.0613C26.749 20.4073 31.2721 17.4164 35.8464 18.4382Z" fill="#FC75FF" stroke="black" stroke-width="1.55568" stroke-linecap="round" stroke-linejoin="round"/>
<ellipse cx="33.6382" cy="26.1618" rx="3.81325" ry="3.92484" transform="rotate(12.5931 33.6382 26.1618)" fill="black"/>
</svg>
