<svg width="49" height="65" viewBox="0 0 49 65" fill="none" xmlns="http://www.w3.org/2000/svg">
<path fill-rule="evenodd" clip-rule="evenodd" d="M27.5337 16.8968C28.0028 12.1773 30.1224 3.06179 36.8457 5.87258C41.1235 7.66173 44.836 13.1248 43.9011 17.8647C42.729 23.8051 35.9295 23.8522 31.3025 22.5345C29.9704 22.1556 28.664 21.6657 27.3809 21.1C27.3526 19.6976 27.3949 18.294 27.5337 16.8968ZM0.0408878 0.323635C5.88719 9.30296 14.3098 17.6412 24.048 22.6312C24.2261 25.0929 24.5811 27.4113 24.9871 29.3479C27.3473 40.5984 33.741 52.3757 42.1341 60.282C43.0516 61.1457 44.3925 60.4187 44.6598 59.4181C44.5763 59.9907 44.4858 60.5624 44.3882 61.1332C42.9101 60.8188 41.5286 60.2826 40.1742 59.4877C39.3467 59.0016 38.6085 58.2484 37.7585 57.8343C37.2522 57.5876 36.973 57.8762 36.4579 57.5322C36.2936 57.4224 36.0289 57.5451 36.1118 57.7669C36.3392 58.3739 36.1042 58.8685 36.357 59.4661C36.755 60.4077 38.1493 61.5129 38.9297 62.0943C40.8732 63.5423 43.1415 64.4144 45.5088 64.8622C46.4976 65.0489 47.309 64.3616 47.5552 63.4474C48.1592 61.2065 48.4451 58.8796 48.5776 56.5663C48.6919 54.562 48.9513 52.2924 48.1955 50.4011C47.6038 48.9179 45.5125 49.0762 45.1498 50.6329C44.7067 52.5324 45.087 54.6035 44.9705 56.5546C44.9207 57.391 44.8237 58.2166 44.7106 59.0396C44.7045 58.7741 44.6197 58.5018 44.4272 58.2434C38.2092 49.8946 32.0751 42.1272 29.0969 31.9339C28.3645 29.4305 27.8442 26.8534 27.5759 24.2525C27.7969 24.3439 28.0159 24.4458 28.239 24.5347C35.5803 27.4409 47.1863 26.8826 47.2513 16.4727C47.2985 9.08393 38.497 -1.62812 30.5237 3.15218C25.4293 6.20627 23.9291 12.92 23.9301 19.3768C20.9724 17.7342 18.1573 15.7806 15.492 13.8867C9.93513 9.93969 4.91712 5.17568 0.400931 0.0817901C0.221685 -0.12003 -0.116543 0.0822217 0.0408878 0.323635Z" fill="black"/>
</svg>
