<svg width="53" height="58" viewBox="0 0 53 58" fill="none" xmlns="http://www.w3.org/2000/svg">
<path d="M4.19796 56.1923C4.17177 56.6496 4.37217 57.0905 4.7339 57.3715C5.09562 57.6525 5.57241 57.7376 6.00903 57.5992L22.4673 52.3794C22.7423 52.2922 22.9835 52.1216 23.1574 51.8914L49.8863 16.5041C50.1807 16.1144 50.2493 15.5989 50.0672 15.1457C48.3204 10.7989 44.9701 7.60931 41.413 5.55201C37.8756 3.50601 33.9895 2.49662 31.0129 2.65262C30.5864 2.67497 30.1938 2.89179 29.9478 3.24082L5.45108 37.9882C5.30119 38.2008 5.21385 38.4512 5.19898 38.7109L4.19796 56.1923Z" fill="#B3B3B3"/>
<path d="M28.1212 0.711798C30.9348 0.564366 34.6882 1.52432 38.1363 3.51864C41.5942 5.51863 44.8182 8.60136 46.4933 12.7697C46.5841 12.9961 46.5496 13.2535 46.4027 13.4483L19.6732 48.8361C19.5863 48.9509 19.4662 49.0364 19.329 49.08L2.87064 54.2991C2.65241 54.3683 2.41382 54.3262 2.23298 54.1859C2.05223 54.0455 1.95153 53.8251 1.96446 53.5966L2.96596 36.1149L2.9785 36.0184C2.99743 35.9235 3.03556 35.8331 3.09174 35.7534L27.589 1.00568L27.6376 0.943483C27.7605 0.805606 27.9346 0.721579 28.1212 0.711798Z" fill="white" stroke="black" stroke-width="1.39241" stroke-linejoin="round"/>
<path d="M28.1597 1.40773L3.66301 36.1551C6.76329 36.5591 14.1951 39.577 19.1202 48.4167L45.8491 13.0295C42.6423 5.04954 33.461 1.1299 28.1597 1.40773Z" fill="#FF5757"/>
<path d="M24.0088 6.57033C29.0546 6.44275 33.1325 8.42236 36.1624 10.9226C39.1832 13.4154 41.1905 16.4475 42.1242 18.5087C42.2294 18.741 42.1996 19.0125 42.0459 19.2159L19.6738 48.8346C19.5313 49.0232 19.3029 49.1272 19.0672 49.1099C18.8315 49.0926 18.6209 48.9564 18.5075 48.7491C13.8406 40.2141 6.524 37.2591 3.56414 36.8429C3.32394 36.8092 3.11868 36.6529 3.02227 36.4303C2.9259 36.2077 2.95263 35.9511 3.09238 35.7529L23.4571 6.86523L23.5084 6.80093C23.6356 6.65963 23.8164 6.5752 24.0088 6.57033Z" fill="#F8D044" stroke="black" stroke-width="1.39241" stroke-linejoin="round"/>
<path d="M3.163 44.8952L2.66249 53.6359L10.8916 51.026C8.18831 47.3333 4.61283 45.4002 3.163 44.8952Z" fill="black"/>
<path d="M17.2993 46.0725L40.2336 15.6007" stroke="black" stroke-width="1.39241" stroke-linecap="round" stroke-linejoin="round"/>
<path d="M9.76338 39.4953L31.2555 8.21684" stroke="black" stroke-width="1.39241" stroke-linecap="round" stroke-linejoin="round"/>
</svg>
