<svg width="67" height="67" viewBox="0 0 67 67" fill="none" xmlns="http://www.w3.org/2000/svg">
<path d="M36.125 59.2156C36.3368 59.7783 36.9051 60.1239 37.5021 60.0531C38.0991 59.9824 38.5709 59.5135 38.6453 58.917C39.4411 52.5389 44.7785 38.0406 59.6268 31.5773C60.1944 31.3302 60.5108 30.7188 60.3848 30.1128C60.2588 29.5067 59.7249 29.0721 59.1058 29.0717C51.7155 29.0675 45.6622 25.6461 41.0528 21.2675C36.4333 16.8794 33.3491 11.6048 31.94 8.13074C31.7166 7.58 31.1498 7.2493 30.5604 7.32584C29.9711 7.40239 29.5075 7.86691 29.4322 8.45645C27.1552 26.2861 14.4894 34.082 8.61677 35.7404C8.00194 35.9141 7.60271 36.5067 7.67281 37.1417C7.7429 37.7768 8.26178 38.2681 8.89969 38.3034C15.4429 38.6659 30.157 43.3636 36.125 59.2156Z" fill="#B3B3B3"/>
<path d="M26.8629 6.71985C26.9006 6.42513 27.1323 6.19259 27.427 6.15432C27.7215 6.11629 28.0045 6.28194 28.1161 6.55717C29.5557 10.1063 32.6893 15.4621 37.3845 19.9222C42.0746 24.3774 48.2809 27.901 55.8873 27.9054C56.1967 27.9056 56.4634 28.1233 56.5265 28.4263C56.5895 28.7292 56.4318 29.0352 56.1482 29.1588C41.0192 35.7444 35.5924 50.4962 34.7788 57.0171C34.7414 57.3151 34.5055 57.5488 34.2073 57.5843C33.9088 57.6197 33.6248 57.4473 33.5189 57.166C27.4305 40.9941 12.425 36.2032 5.71748 35.8315C5.3987 35.8138 5.13957 35.5681 5.10447 35.2508C5.06943 34.9333 5.2689 34.6374 5.57619 34.5505C11.6477 32.8359 24.5462 24.8603 26.8629 6.71985Z" fill="#FC75FF" stroke="black" stroke-width="1.30707" stroke-linejoin="round"/>
<path d="M41.8052 30.7774C35.3107 34.7487 32.8624 41.735 32.1789 44.9765C30.0117 40.8301 24.4522 34.2334 19.5198 33.5667C21.485 32.9087 26.4843 26.8878 28.8313 19.4549C33.082 26.9571 39.1177 30.0533 41.8052 30.7774Z" fill="white" stroke="black" stroke-width="1.30707" stroke-linecap="round" stroke-linejoin="round"/>
</svg>
