<svg width="68" height="68" viewBox="0 0 68 68" fill="none" xmlns="http://www.w3.org/2000/svg">
<path d="M67.2501 5.49023C65.3528 18.4118 53.9407 28.5065 39.8116 29.4361V29.5793C50.0426 30.2524 58.8475 35.7322 63.6482 43.6101C58.2956 45.1887 54.3727 50.3339 54.3727 56.437C54.3727 60.6859 56.2743 64.47 59.2358 66.91C58.2529 66.5977 57.2833 66.2316 56.3329 65.8077C52.7997 64.2321 49.5894 61.9226 46.8852 59.0112C44.181 56.0998 42.0359 52.6436 40.5723 48.8398C39.1088 45.0358 38.3555 40.9585 38.3555 36.8412C38.3555 32.7238 39.1088 28.6465 40.5723 24.8426C42.0359 21.0387 44.181 17.5825 46.8852 14.6712C49.5894 11.7598 52.7997 9.45029 56.3329 7.87464C59.796 6.33025 63.5031 5.52175 67.2501 5.49023Z" fill="black"/>
<path d="M28.2548 30.3225C28.6769 32.4606 28.8939 34.6448 28.894 36.8412C28.894 40.9585 28.1406 45.0358 26.6771 48.8398C25.2136 52.6436 23.0684 56.0998 20.3642 59.0112C17.66 61.9226 14.4497 64.2321 10.9166 65.8077C9.59195 66.3984 8.23135 66.8811 6.84684 67.2544C10.0576 64.835 12.1487 60.8919 12.1487 56.437C12.1487 50.7539 8.74678 45.9022 3.95666 43.9868C8.92399 36.1462 17.8989 30.7746 28.2548 30.3225Z" fill="black"/>
<path d="M0 5.49023C3.74674 5.52185 7.45359 6.33035 10.9166 7.87464C14.4497 9.45029 17.66 11.7598 20.3642 14.6712C23.0684 17.5825 25.2136 21.0387 26.6771 24.8426C27.3522 26.5973 27.8741 28.4109 28.2427 30.259C13.5055 29.6101 1.5666 19.0004 0 5.49023Z" fill="black"/>
<path d="M32.8565 12.5305C32.7724 12.1842 31.4165 4.0916 26.087 0.383587C26.0672 0.367604 25.5674 0 24.9835 0C24.4094 0 23.8008 0.618002 23.8008 1.236C23.8008 1.85401 24.2659 2.36013 24.8449 2.36013C25.2161 2.36013 25.7406 1.82737 26.0771 2.14702C30.6742 5.33826 32.1538 12.4879 32.1736 12.5678C32.2281 12.8076 32.9258 12.8182 32.8565 12.5305ZM33.5889 12.5305C33.673 12.1842 35.0289 4.0916 40.3584 0.383587C40.3782 0.367604 40.878 0 41.462 0C42.036 0 42.6447 0.618002 42.6447 1.236C42.6447 1.85401 42.1795 2.36013 41.6005 2.36013C41.2294 2.36013 40.7048 1.82737 40.3683 2.14702C35.7712 5.33826 34.2916 12.4879 34.2718 12.5678C34.2174 12.8076 33.5196 12.8182 33.5889 12.5305Z" fill="black"/>
<path d="M28.5331 52.5167V46.5688H38.7259V52.5167H28.5331ZM30.3533 37.9302V31.9823H37.244V37.9302H30.3533ZM28.1691 24.7598V18.8119H38.7259V24.7598H28.1691Z" fill="black"/>
<path d="M38.7259 18.0281C38.7259 21.7077 36.0801 24.6907 33.2655 24.6907C30.4508 24.6907 28.1691 21.7077 28.1691 18.0281C28.1691 14.3485 30.4508 11.3656 33.2655 11.3656C36.0801 11.3656 38.7259 14.3485 38.7259 18.0281Z" fill="black"/>
</svg>
